<svg width="75" height="100" viewBox="0 0 75 100" fill="none" xmlns="http://www.w3.org/2000/svg">
<path d="M49.1061 11.6667C49.1061 5.22317 43.9401 -1.3733e-06 37.5676 -1.65506e-06C31.195 -1.93682e-06 26.0291 5.22316 26.0291 11.6667L26.0291 49.1667L19.1723 49.1667C17.1457 49.1655 14.6574 49.1632 12.6216 49.421L12.583 49.4257C11.124 49.61 4.47736 50.4477 1.31166 57.0463C-1.86095 63.659 1.62286 69.4947 2.37655 70.757L6.28971 76.2217C9.68941 80.6072 14.3706 84.9418 18.7601 89.5035C20.9505 91.7797 23.4573 94.1282 26.1217 95.9808C28.4901 97.6282 32.5307 100 37.5 100C42.4693 100 46.5099 97.6282 48.8783 95.9808C51.5427 94.1282 54.0495 91.7797 56.2399 89.5035C60.6294 84.9418 65.3106 80.6072 68.7102 76.2228L72.6234 70.757C73.3771 69.4947 76.8609 63.659 73.6883 57.0463C70.5226 50.4477 63.876 49.61 62.417 49.4257L62.3784 49.421C60.3426 49.1632 57.8542 49.1655 55.8277 49.1667L49.1061 49.1667L49.1061 11.6667Z" fill="#25D2DE"/>
</svg>
