<svg width="393" height="852" viewBox="0 0 393 852" fill="none" xmlns="http://www.w3.org/2000/svg">
<g opacity="0.1" filter="url(#filter0_f_0_1)">
<path d="M485.476 876.638C413.864 990.81 372.576 1117.35 217.213 1019.9C61.8497 922.45 156.638 844.197 228.25 730.025C138.165 524.387 321.181 508.995 476.544 606.443C631.907 703.891 721.669 929.52 485.476 876.638Z" fill="url(#paint0_linear_0_1)"/>
</g>
<path opacity="0.2" d="M-293.748 323.213L-210.527 233.016L-150.666 267.353L-90.5224 196.964L-30.6434 233.723L38.8189 157.954L96.2935 197.722L180.585 111.77L241.236 159.431" stroke="url(#paint1_linear_0_1)" stroke-width="40" stroke-linecap="round" stroke-linejoin="round"/>
<path d="M-15.3383 644.292C-14.4125 641.587 -10.5875 641.587 -9.66168 644.292L-0.993004 669.616C-0.322372 671.575 2.08442 672.282 3.70778 670.996L24.6917 654.379C26.9327 652.604 30.1505 654.672 29.4671 657.448L23.0684 683.439C22.5734 685.449 24.216 687.345 26.2767 687.141L52.9135 684.506C55.7583 684.225 57.3473 687.704 55.2717 689.67L35.8371 708.075C34.3336 709.499 34.6905 711.982 36.5343 712.925L60.3671 725.109C62.9124 726.41 62.368 730.197 59.5592 730.728L33.2591 735.704C31.2244 736.089 30.1824 738.371 31.2239 740.161L44.6859 763.296C46.1236 765.767 43.6187 768.658 40.9684 767.586L16.1529 757.554C14.2331 756.778 12.1229 758.134 12.0314 760.203L10.8485 786.943C10.7222 789.799 7.05207 790.877 5.40182 788.542L-10.0504 766.686C-11.2458 764.995 -13.7542 764.995 -14.9496 766.686L-30.4018 788.542C-32.0521 790.877 -35.7222 789.799 -35.8485 786.943L-37.0314 760.203C-37.1229 758.134 -39.2331 756.778 -41.1529 757.554L-65.9684 767.586C-68.6187 768.658 -71.1235 765.767 -69.6858 763.296L-56.2239 740.161C-55.1824 738.371 -56.2244 736.089 -58.2591 735.704L-84.5592 730.728C-87.368 730.197 -87.9124 726.41 -85.3671 725.109L-61.5343 712.925C-59.6905 711.982 -59.3336 709.499 -60.8371 708.075L-80.2717 689.67C-82.3473 687.704 -80.7583 684.225 -77.9135 684.506L-51.2767 687.141C-49.216 687.345 -47.5734 685.449 -48.0684 683.439L-54.4671 657.448C-55.1505 654.672 -51.9327 652.604 -49.6917 654.379L-28.7078 670.996C-27.0844 672.282 -24.6776 671.575 -24.007 669.616L-15.3383 644.292Z" fill="#FFD700"/>
<path opacity="0.05" d="M404 446L413.167 472.78L435.357 455.207L428.591 482.692L456.759 479.906L436.207 499.369L461.41 512.254L433.598 517.517L447.833 541.982L421.591 531.373L420.34 559.651L404 536.538L387.66 559.651L386.409 531.373L360.167 541.982L374.402 517.517L346.59 512.254L371.793 499.369L351.241 479.906L379.409 482.692L372.643 455.207L394.833 472.78L404 446Z" fill="#04FFD1" stroke="#04FFD1" stroke-width="5" stroke-linejoin="round"/>
<g opacity="0.1" filter="url(#filter1_f_0_1)">
<path d="M100.476 128.638C28.8637 242.81 -12.4242 369.346 -167.787 271.898C-323.15 174.45 -228.362 96.1972 -156.75 -17.9754C-246.835 -223.613 -63.8195 -239.005 91.5436 -141.557C246.907 -44.109 336.669 181.52 100.476 128.638Z" fill="url(#paint2_linear_0_1)"/>
</g>
<path d="M280.56 740.494L352.701 777.526L317.091 829.979L373.816 855.388L336.069 908.484L396.71 939.267L356.523 991.398L424.824 1030.31L377.394 1086.81" stroke="url(#paint3_linear_0_1)" stroke-width="30" stroke-linecap="round" stroke-linejoin="round"/>
<defs>
<filter id="filter0_f_0_1" x="33.3512" y="448.48" width="696.763" height="706.2" filterUnits="userSpaceOnUse" color-interpolation-filters="sRGB">
<feFlood flood-opacity="0" result="BackgroundImageFix"/>
<feBlend mode="normal" in="SourceGraphic" in2="BackgroundImageFix" result="shape"/>
<feGaussianBlur stdDeviation="50" result="effect1_foregroundBlur_0_1"/>
</filter>
<filter id="filter1_f_0_1" x="-351.649" y="-299.52" width="696.763" height="706.2" filterUnits="userSpaceOnUse" color-interpolation-filters="sRGB">
<feFlood flood-opacity="0" result="BackgroundImageFix"/>
<feBlend mode="normal" in="SourceGraphic" in2="BackgroundImageFix" result="shape"/>
<feGaussianBlur stdDeviation="50" result="effect1_foregroundBlur_0_1"/>
</filter>
<linearGradient id="paint0_linear_0_1" x1="412.636" y1="796.831" x2="511.346" y2="636.998" gradientUnits="userSpaceOnUse">
<stop stop-color="#A6A4FF"/>
<stop offset="1" stop-color="#04FFD2" stop-opacity="0"/>
</linearGradient>
<linearGradient id="paint1_linear_0_1" x1="-119.932" y1="280.944" x2="243.396" y2="160.454" gradientUnits="userSpaceOnUse">
<stop stop-color="#EAFEEA"/>
<stop offset="1" stop-color="#EAFEEA" stop-opacity="0"/>
</linearGradient>
<linearGradient id="paint2_linear_0_1" x1="27.6358" y1="48.8309" x2="126.346" y2="-111.002" gradientUnits="userSpaceOnUse">
<stop stop-color="#A6A4FF"/>
<stop offset="1" stop-color="#04FFD2" stop-opacity="0"/>
</linearGradient>
<linearGradient id="paint3_linear_0_1" x1="262.594" y1="846.331" x2="366.128" y2="984.01" gradientUnits="userSpaceOnUse">
<stop stop-color="#FFB6C1"/>
<stop offset="1" stop-color="#EAFEEA" stop-opacity="0"/>
</linearGradient>
</defs>
</svg>
